HIERARCHY
ROOT Hips
{
  OFFSET 0.000 63.810 0.000
  CHANNELS 6 Xposition Yposition Zposition Zrotation Xrotation Yrotation
  JOINT LeftUpLeg
  {
    OFFSET 7.326 0.095 3.142
    CHANNELS 6 Xposition Yposition Zposition Zrotation Xrotation Yrotation
    JOINT LeftLeg
    {
      OFFSET 0.000 -33.006 0.000
      CHANNELS 6 Xposition Yposition Zposition Zrotation Xrotation Yrotation
      JOINT LeftFoot
      {
        OFFSET 0.000 -30.899 0.000
        CHANNELS 6 Xposition Yposition Zposition Zrotation Xrotation Yrotation
        End Site
        {
          OFFSET 0.000 0.000 9.094
        }
      }
    }
  }
  JOINT RightUpLeg
  {
    OFFSET -7.326 0.095 3.142
    CHANNELS 6 Xposition Yposition Zposition Zrotation Xrotation Yrotation
    JOINT RightLeg
    {
      OFFSET 0.000 -33.006 0.000
      CHANNELS 6 Xposition Yposition Zposition Zrotation Xrotation Yrotation
      JOINT RightFoot
      {
        OFFSET 0.000 -30.899 0.000
        CHANNELS 6 Xposition Yposition Zposition Zrotation Xrotation Yrotation
        End Site
        {
          OFFSET 0.000 0.000 9.094
        }
      }
    }
  }
  JOINT Spine
  {
    OFFSET 0.000 29.620 0.000
    CHANNELS 6 Xposition Yposition Zposition Zrotation Xrotation Yrotation
    JOINT Spine1
    {
      OFFSET 0.000 21.345 0.000
      CHANNELS 6 Xposition Yposition Zposition Zrotation Xrotation Yrotation
      JOINT LeftShoulder
      {
        OFFSET 1.527 -0.228 0.129
        CHANNELS 6 Xposition Yposition Zposition Zrotation Xrotation Yrotation
        JOINT LeftArm
        {
          OFFSET 14.091 0.000 0.000
          CHANNELS 6 Xposition Yposition Zposition Zrotation Xrotation Yrotation
          JOINT LeftForeArm
          {
            OFFSET 23.859 0.000 0.000
            CHANNELS 6 Xposition Yposition Zposition Zrotation Xrotation Yrotation
            JOINT LeftHand
            {
              OFFSET 20.733 0.000 0.000
              CHANNELS 6 Xposition Yposition Zposition Zrotation Xrotation Yrotation
              JOINT LeftHandThumb1
              {
                OFFSET 4.877 -1.044 3.608
                CHANNELS 6 Xposition Yposition Zposition Zrotation Xrotation Yrotation
                JOINT LeftHandThumb2
                {
                  OFFSET 2.665 0.000 0.000
                  CHANNELS 6 Xposition Yposition Zposition Zrotation Xrotation Yrotation
                  JOINT LeftHandThumb3
                  {
                    OFFSET 2.543 -0.000 0.000
                    CHANNELS 6 Xposition Yposition Zposition Zrotation Xrotation Yrotation
                    End Site
                    {
                      OFFSET 2.667 -0.000 0.000
                    }
                  }
                }
              }
              JOINT LeftHandIndex1
              {
                OFFSET 9.232 -0.301 2.144
                CHANNELS 6 Xposition Yposition Zposition Zrotation Xrotation Yrotation
                JOINT LeftHandIndex2
                {
                  OFFSET 4.225 -0.000 -0.000
                  CHANNELS 6 Xposition Yposition Zposition Zrotation Xrotation Yrotation
                  JOINT LeftHandIndex3
                  {
                    OFFSET 2.654 0.000 0.000
                    CHANNELS 6 Xposition Yposition Zposition Zrotation Xrotation Yrotation
                    End Site
                    {
                      OFFSET 1.958 -0.000 -0.000
                    }
                  }
                }
              }
              JOINT LeftHandMiddle1
              {
                OFFSET 8.920 -0.000 0.000
                CHANNELS 6 Xposition Yposition Zposition Zrotation Xrotation Yrotation
                JOINT LeftHandMiddle2
                {
                  OFFSET 4.863 0.000 0.000
                  CHANNELS 6 Xposition Yposition Zposition Zrotation Xrotation Yrotation
                  JOINT LeftHandMiddle3
                  {
                    OFFSET 2.765 0.000 0.000
                    CHANNELS 6 Xposition Yposition Zposition Zrotation Xrotation Yrotation
                    End Site
                    {
                      OFFSET 2.006 -0.000 0.000
                    }
                  }
                }
              }
              JOINT LeftHandRing1
              {
                OFFSET 8.689 -0.126 -2.087
                CHANNELS 6 Xposition Yposition Zposition Zrotation Xrotation Yrotation
                JOINT LeftHandRing2
                {
                  OFFSET 4.538 0.000 0.000
                  CHANNELS 6 Xposition Yposition Zposition Zrotation Xrotation Yrotation
                  JOINT LeftHandRing3
                  {
                    OFFSET 2.305 0.000 0.000
                    CHANNELS 6 Xposition Yposition Zposition Zrotation Xrotation Yrotation
                    End Site
                    {
                      OFFSET 1.923 0.000 0.000
                    }
                  }
                }
              }
              JOINT LeftHandPinky1
              {
                OFFSET 8.391 -0.817 -3.758
                CHANNELS 6 Xposition Yposition Zposition Zrotation Xrotation Yrotation
                JOINT LeftHandPinky2
                {
                  OFFSET 3.044 -0.000 -0.000
                  CHANNELS 6 Xposition Yposition Zposition Zrotation Xrotation Yrotation
                  JOINT LeftHandPinky3
                  {
                    OFFSET 1.975 -0.000 0.000
                    CHANNELS 6 Xposition Yposition Zposition Zrotation Xrotation Yrotation
                    End Site
                    {
                      OFFSET 1.667 -0.000 0.000
                    }
                  }
                }
              }
            }
          }
        }
      }
      JOINT RightShoulder
      {
        OFFSET -1.527 -0.228 0.129
        CHANNELS 6 Xposition Yposition Zposition Zrotation Xrotation Yrotation
        JOINT RightArm
        {
          OFFSET -14.091 0.000 0.000
          CHANNELS 6 Xposition Yposition Zposition Zrotation Xrotation Yrotation
          JOINT RightForeArm
          {
            OFFSET -23.859 0.000 0.000
            CHANNELS 6 Xposition Yposition Zposition Zrotation Xrotation Yrotation
            JOINT RightHand
            {
              OFFSET -20.733 0.000 0.000
              CHANNELS 6 Xposition Yposition Zposition Zrotation Xrotation Yrotation
              JOINT RightHandThumb1
              {
                OFFSET -4.877 -1.044 3.608
                CHANNELS 6 Xposition Yposition Zposition Zrotation Xrotation Yrotation
                JOINT RightHandThumb2
                {
                  OFFSET -2.665 0.000 0.000
                  CHANNELS 6 Xposition Yposition Zposition Zrotation Xrotation Yrotation
                  JOINT RightHandThumb3
                  {
                    OFFSET -2.543 0.000 0.000
                    CHANNELS 6 Xposition Yposition Zposition Zrotation Xrotation Yrotation
                    End Site
                    {
                      OFFSET -2.667 0.000 0.000
                    }
                  }
                }
              }
              JOINT RightHandIndex1
              {
                OFFSET -9.232 -0.301 2.144
                CHANNELS 6 Xposition Yposition Zposition Zrotation Xrotation Yrotation
                JOINT RightHandIndex2
                {
                  OFFSET -4.225 0.000 0.000
                  CHANNELS 6 Xposition Yposition Zposition Zrotation Xrotation Yrotation
                  JOINT RightHandIndex3
                  {
                    OFFSET -2.654 0.000 0.000
                    CHANNELS 6 Xposition Yposition Zposition Zrotation Xrotation Yrotation
                    End Site
                    {
                      OFFSET -1.958 0.000 0.000
                    }
                  }
                }
              }
              JOINT RightHandMiddle1
              {
                OFFSET -8.920 0.000 -0.000
                CHANNELS 6 Xposition Yposition Zposition Zrotation Xrotation Yrotation
                JOINT RightHandMiddle2
                {
                  OFFSET -4.863 0.000 0.000
                  CHANNELS 6 Xposition Yposition Zposition Zrotation Xrotation Yrotation
                  JOINT RightHandMiddle3
                  {
                    OFFSET -2.765 0.000 0.000
                    CHANNELS 6 Xposition Yposition Zposition Zrotation Xrotation Yrotation
                    End Site
                    {
                      OFFSET -2.006 0.000 -0.000
                    }
                  }
                }
              }
              JOINT RightHandRing1
              {
                OFFSET -8.689 -0.126 -2.087
                CHANNELS 6 Xposition Yposition Zposition Zrotation Xrotation Yrotation
                JOINT RightHandRing2
                {
                  OFFSET -4.538 0.000 0.000
                  CHANNELS 6 Xposition Yposition Zposition Zrotation Xrotation Yrotation
                  JOINT RightHandRing3
                  {
                    OFFSET -2.305 -0.000 0.000
                    CHANNELS 6 Xposition Yposition Zposition Zrotation Xrotation Yrotation
                    End Site
                    {
                      OFFSET -1.923 0.000 -0.000
                    }
                  }
                }
              }
              JOINT RightHandPinky1
              {
                OFFSET -8.391 -0.817 -3.758
                CHANNELS 6 Xposition Yposition Zposition Zrotation Xrotation Yrotation
                JOINT RightHandPinky2
                {
                  OFFSET -3.044 -0.000 0.000
                  CHANNELS 6 Xposition Yposition Zposition Zrotation Xrotation Yrotation
                  JOINT RightHandPinky3
                  {
                    OFFSET -1.975 0.000 0.000
                    CHANNELS 6 Xposition Yposition Zposition Zrotation Xrotation Yrotation
                    End Site
                    {
                      OFFSET -1.667 -0.000 -0.000
                    }
                  }
                }
              }
            }
          }
        }
      }
      JOINT Neck
      {
        OFFSET 0.000 0.689 0.000
        CHANNELS 6 Xposition Yposition Zposition Zrotation Xrotation Yrotation
        JOINT Head
        {
          OFFSET 0.000 6.392 0.000
          CHANNELS 6 Xposition Yposition Zposition Zrotation Xrotation Yrotation
          End Site
          {
            OFFSET 0.000 13.671 0.000
          }
        }
      }
    }
  }
}
MOTION
Frames:	4
Frame Time:	0.033333
6.72252 70.15491 -170.93454 0.35101 -4.10708 -3.16116 7.82713 -0.29909 3.61784 14.73922 0.23838 20.45084 -0.00001 -31.47722 -0.00119 -0.64654 15.07646 -20.27898 0.00323 -31.80980 -0.00739 0.19288 2.94632 -3.71755 -7.70337 -0.23201 3.62137 -15.34798 -3.31120 -17.15869 -0.00431 -30.39788 -0.00542 3.14269 14.74088 19.92607 -0.00241 -32.93355 -0.00770 -0.32896 6.73699 2.84196 -0.00038 29.77947 -0.00136 -0.11966 1.73479 1.20819 -0.00193 21.50471 0.00048 -0.11137 2.29190 1.35573 1.36742 -0.05428 0.24354 -2.15486 0.38712 -9.59868 12.42713 0.00397 -0.00199 -66.38945 3.37456 -41.02268 25.87338 -0.02237 0.00007 -14.86634 -5.96481 -43.33975 16.87461 -0.09790 -0.22030 5.99195 -10.11735 -11.41611 4.87701 -1.04401 3.60801 -24.66783 4.20640 -9.07775 2.66500 0.00001 0.00000 0.00000 -0.00000 9.99772 2.54301 -0.00001 0.00001 0.00000 -0.00000 15.00188 9.23200 -0.30102 2.14399 -20.00159 -0.00000 -0.00000 4.22500 -0.00001 -0.00001 -25.00173 -0.00000 -0.00000 2.65399 0.00000 0.00001 -29.90711 2.49935 -4.33119 8.92000 -0.00001 0.00000 -20.00159 -0.00000 -0.00000 4.86301 0.00000 0.00000 -25.00173 -0.00000 -0.00000 2.76501 0.00000 0.00001 -29.90711 2.49935 -4.33119 8.68900 -0.12600 -2.08700 -20.00159 -0.00000 -0.00000 4.53800 0.00000 0.00000 -25.00173 -0.00000 -0.00000 2.30501 0.00000 0.00001 -29.90711 2.49935 -4.33119 8.39100 -0.81701 -3.75800 -20.00159 -0.00000 -0.00000 3.04401 -0.00001 -0.00001 -25.00173 -0.00000 -0.00000 1.97501 -0.00001 0.00001 -29.90711 2.49935 -4.33119 -1.38881 -0.23031 0.24122 9.05524 1.49575 9.27965 -12.88719 -0.00422 -0.00305 60.40261 1.08437 37.31100 -25.87716 -0.01097 0.01349 -7.42935 2.87897 43.43500 -20.24386 -0.05441 -0.03999 -0.46964 9.52404 21.70492 -4.87701 -1.04400 3.60800 24.66713 4.21037 9.07770 -2.66500 0.00000 0.00000 0.00000 0.00000 -9.99802 -2.54301 0.00000 0.00001 0.00000 0.00000 -15.00213 -9.23200 -0.30100 2.14400 20.00205 0.00000 -0.00000 -4.22500 0.00000 0.00000 25.00222 0.00000 -0.00000 -2.65402 0.00000 0.00001 29.90742 2.49795 4.33138 -8.92001 0.00000 -0.00001 20.00205 0.00000 -0.00000 -4.86301 0.00000 0.00000 25.00222 0.00000 -0.00000 -2.76500 0.00000 0.00001 29.90742 2.49795 4.33138 -8.68900 -0.12600 -2.08701 20.00205 0.00000 -0.00000 -4.53801 0.00001 0.00001 25.00222 0.00000 -0.00000 -2.30500 -0.00001 0.00001 29.90742 2.49795 4.33138 -8.39101 -0.81700 -3.75800 20.00205 0.00000 -0.00000 -3.04399 -0.00001 0.00001 25.00222 0.00000 -0.00000 -1.97501 0.00000 0.00001 29.90742 2.49795 4.33138 -0.00065 0.69207 0.00027 0.00012 -0.00001 0.00002 0.00068 6.19913 0.01196 5.24019 6.59801 -8.50438 
6.73813 70.18324 -170.93463 0.33607 -4.09335 -3.24106 7.82098 -0.29571 3.61764 14.74346 0.24105 20.35550 -0.00003 -31.53790 -0.00117 -0.65939 15.09479 -20.18599 0.00322 -31.78295 -0.00739 0.18991 2.90734 -3.70953 -7.68499 -0.23528 3.62121 -15.33724 -3.35330 -17.22032 -0.00431 -30.45275 -0.00541 3.08990 14.75898 19.98101 -0.00244 -32.91472 -0.00769 -0.33109 6.73769 2.86022 -0.00034 29.76348 -0.00132 -0.12021 1.73541 1.20430 -0.00190 21.48849 0.00055 -0.10801 2.29057 1.35595 1.38872 -0.05842 0.24340 -2.29289 0.39992 -9.47165 12.61955 0.00054 -0.00194 -66.19794 3.75849 -40.08260 25.87207 -0.00878 -0.01664 -15.97176 -5.74884 -42.46893 17.71439 -0.12191 -0.24113 5.29034 -10.62239 -16.29234 4.87701 -1.04401 3.60801 -24.66778 4.20646 -9.07781 2.66500 0.00001 0.00000 0.00000 -0.00000 9.99778 2.54301 -0.00001 0.00001 0.00000 -0.00000 15.00183 9.23200 -0.30102 2.14399 -20.00155 -0.00000 -0.00000 4.22500 -0.00001 -0.00001 -25.00168 -0.00000 -0.00000 2.65399 0.00000 0.00001 -29.90707 2.49932 -4.33123 8.92000 -0.00001 0.00000 -20.00155 -0.00000 -0.00000 4.86301 0.00000 0.00000 -25.00168 -0.00000 -0.00000 2.76501 0.00000 0.00001 -29.90707 2.49932 -4.33123 8.68900 -0.12600 -2.08700 -20.00155 -0.00000 -0.00000 4.53800 0.00000 0.00000 -25.00168 -0.00000 -0.00000 2.30501 0.00000 0.00001 -29.90707 2.49932 -4.33123 8.39100 -0.81701 -3.75800 -20.00155 -0.00000 -0.00000 3.04401 -0.00001 -0.00001 -25.00168 -0.00000 -0.00000 1.97501 -0.00001 0.00001 -29.90707 2.49932 -4.33123 -1.40683 -0.24125 0.24089 9.37196 1.52651 9.15959 -13.06324 -0.00434 -0.00325 60.82569 1.21710 37.20043 -25.87684 -0.01061 0.01308 -7.42934 2.97298 43.12283 -18.96217 -0.06086 -0.05202 -0.85678 9.29292 18.76428 -4.87701 -1.04400 3.60800 24.66708 4.21031 9.07776 -2.66500 0.00000 0.00000 0.00000 0.00000 -9.99809 -2.54301 0.00000 0.00001 0.00000 0.00000 -15.00208 -9.23200 -0.30100 2.14400 20.00201 0.00000 -0.00000 -4.22500 0.00000 0.00000 25.00218 0.00000 -0.00000 -2.65402 0.00000 0.00001 29.90738 2.49791 4.33143 -8.92001 0.00000 -0.00001 20.00201 0.00000 -0.00000 -4.86301 0.00000 0.00000 25.00218 0.00000 -0.00000 -2.76500 0.00000 0.00001 29.90738 2.49791 4.33143 -8.68900 -0.12600 -2.08701 20.00201 0.00000 -0.00000 -4.53801 0.00001 0.00001 25.00218 0.00000 -0.00000 -2.30500 -0.00001 0.00001 29.90738 2.49791 4.33143 -8.39101 -0.81700 -3.75800 20.00201 0.00000 -0.00000 -3.04399 -0.00001 0.00001 25.00218 0.00000 -0.00000 -1.97501 0.00000 0.00001 29.90738 2.49791 4.33143 -0.00065 0.69212 0.00027 0.00012 -0.00001 0.00002 0.00061 6.19502 0.01188 5.32925 6.65703 -8.29665 
6.75145 70.20702 -170.93475 0.31982 -4.08160 -3.31072 7.81550 -0.29500 3.61744 14.75031 0.23965 20.25393 -0.00005 -31.59276 -0.00116 -0.66962 15.12052 -20.09781 0.00321 -31.75792 -0.00738 0.18633 2.86676 -3.69120 -7.66852 -0.23818 3.62105 -15.32149 -3.38945 -17.28331 -0.00431 -30.50149 -0.00540 3.03556 14.77337 20.02778 -0.00248 -32.89677 -0.00767 -0.33443 6.73803 2.88891 -0.00030 29.75078 -0.00128 -0.12033 1.73597 1.20322 -0.00188 21.47413 0.00061 -0.10478 2.28775 1.35633 1.41085 -0.06597 0.24337 -2.55479 0.43474 -9.36934 12.82466 -0.00261 -0.00187 -65.13928 4.20109 -39.15175 25.84925 0.01510 -0.02880 -17.99802 -5.51378 -42.72698 18.57635 -0.15782 -0.21317 8.04337 -11.11839 -14.16319 4.87701 -1.04401 3.60801 -24.66772 4.20651 -9.07787 2.66500 0.00001 0.00000 0.00000 -0.00000 9.99784 2.54301 -0.00001 0.00001 0.00000 -0.00000 15.00179 9.23200 -0.30102 2.14399 -20.00151 -0.00000 -0.00000 4.22500 -0.00001 -0.00001 -25.00164 -0.00000 -0.00000 2.65399 0.00000 0.00001 -29.90702 2.49929 -4.33127 8.92000 -0.00001 0.00000 -20.00151 -0.00000 -0.00000 4.86301 0.00000 0.00000 -25.00164 -0.00000 -0.00000 2.76501 0.00000 0.00001 -29.90702 2.49929 -4.33127 8.68900 -0.12600 -2.08700 -20.00151 -0.00000 -0.00000 4.53800 0.00000 0.00000 -25.00164 -0.00000 -0.00000 2.30501 0.00000 0.00001 -29.90702 2.49929 -4.33127 8.39100 -0.81701 -3.75800 -20.00151 -0.00000 -0.00000 3.04401 -0.00001 -0.00001 -25.00164 -0.00000 -0.00000 1.97501 -0.00001 0.00001 -29.90702 2.49929 -4.33127 -1.42518 -0.25240 0.24068 9.68496 1.56156 9.07087 -13.24317 -0.00447 -0.00344 61.26012 1.27210 37.08070 -25.87650 -0.01026 0.01264 -7.72885 3.10133 43.56732 -17.69649 -0.05105 -0.05346 0.99356 9.09603 12.16098 -4.87701 -1.04400 3.60800 24.66704 4.21026 9.07783 -2.66500 0.00000 0.00000 0.00000 0.00000 -9.99816 -2.54301 0.00000 0.00001 0.00000 0.00000 -15.00203 -9.23200 -0.30100 2.14400 20.00198 0.00000 -0.00000 -4.22500 0.00000 0.00000 25.00214 0.00000 -0.00000 -2.65402 0.00000 0.00001 29.90734 2.49786 4.33148 -8.92001 0.00000 -0.00001 20.00198 0.00000 -0.00000 -4.86301 0.00000 0.00000 25.00214 0.00000 -0.00000 -2.76500 0.00000 0.00001 29.90734 2.49786 4.33148 -8.68900 -0.12600 -2.08701 20.00198 0.00000 -0.00000 -4.53801 0.00001 0.00001 25.00214 0.00000 -0.00000 -2.30500 -0.00001 0.00001 29.90734 2.49786 4.33148 -8.39101 -0.81700 -3.75800 20.00198 0.00000 -0.00000 -3.04399 -0.00001 0.00001 25.00214 0.00000 -0.00000 -1.97501 0.00000 0.00001 29.90734 2.49786 4.33148 -0.00065 0.69218 0.00027 0.00012 -0.00001 0.00002 0.00055 6.19151 0.01180 5.41009 6.73276 -8.08727 
6.76348 70.22610 -170.93492 0.30293 -4.07114 -3.36581 7.81017 -0.29457 3.61724 14.76076 0.23066 20.14982 -0.00007 -31.64001 -0.00115 -0.68112 15.15489 -20.01799 0.00320 -31.73593 -0.00738 0.18215 2.82849 -3.65728 -7.65460 -0.24114 3.62088 -15.30608 -3.41865 -17.35224 -0.00432 -30.54147 -0.00538 2.98640 14.78350 20.07047 -0.00251 -32.88189 -0.00766 -0.33939 6.73809 2.93152 -0.00027 29.74160 -0.00123 -0.12048 1.73649 1.20343 -0.00186 21.46230 0.00067 -0.10006 2.28361 1.35629 1.42616 -0.07374 0.24343 -2.83675 0.47492 -9.30392 12.96949 -0.00487 -0.00181 -63.69281 4.79206 -38.30686 25.70019 0.02900 -0.02217 -20.34769 -5.62136 -41.05519 19.46733 -0.20760 -0.29849 8.70071 -12.24865 -27.78407 4.87701 -1.04401 3.60801 -24.66766 4.20657 -9.07793 2.66500 0.00001 0.00000 0.00000 -0.00000 9.99790 2.54301 -0.00001 0.00001 0.00000 -0.00000 15.00174 9.23200 -0.30102 2.14399 -20.00147 -0.00000 -0.00000 4.22500 -0.00001 -0.00001 -25.00159 -0.00000 -0.00000 2.65399 0.00000 0.00001 -29.90698 2.49927 -4.33132 8.92000 -0.00001 0.00000 -20.00147 -0.00000 -0.00000 4.86301 0.00000 0.00000 -25.00159 -0.00000 -0.00000 2.76501 0.00000 0.00001 -29.90698 2.49927 -4.33132 8.68900 -0.12600 -2.08700 -20.00147 -0.00000 -0.00000 4.53800 0.00000 0.00000 -25.00159 -0.00000 -0.00000 2.30501 0.00000 0.00001 -29.90698 2.49927 -4.33132 8.39100 -0.81701 -3.75800 -20.00147 -0.00000 -0.00000 3.04401 -0.00001 -0.00001 -25.00159 -0.00000 -0.00000 1.97501 -0.00001 0.00001 -29.90698 2.49927 -4.33132 -1.44233 -0.26273 0.24055 9.97124 1.59349 8.99090 -13.41070 -0.00462 -0.00361 61.70597 1.27386 36.99763 -25.87616 -0.00992 0.01185 -7.85425 3.24004 43.56243 -16.67720 -0.03754 -0.02899 2.38323 8.87291 7.23375 -4.87701 -1.04400 3.60800 24.66699 4.21020 9.07789 -2.66500 0.00000 0.00000 0.00000 0.00000 -9.99822 -2.54301 0.00000 0.00001 0.00000 0.00000 -15.00198 -9.23200 -0.30100 2.14400 20.00194 0.00000 -0.00000 -4.22500 0.00000 0.00000 25.00210 0.00000 -0.00000 -2.65402 0.00000 0.00001 29.90730 2.49783 4.33153 -8.92001 0.00000 -0.00001 20.00194 0.00000 -0.00000 -4.86301 0.00000 0.00000 25.00210 0.00000 -0.00000 -2.76500 0.00000 0.00001 29.90730 2.49783 4.33153 -8.68900 -0.12600 -2.08701 20.00194 0.00000 -0.00000 -4.53801 0.00001 0.00001 25.00210 0.00000 -0.00000 -2.30500 -0.00001 0.00001 29.90730 2.49783 4.33153 -8.39101 -0.81700 -3.75800 20.00194 0.00000 -0.00000 -3.04399 -0.00001 0.00001 25.00210 0.00000 -0.00000 -1.97501 0.00000 0.00001 29.90730 2.49783 4.33153 -0.00065 0.69223 0.00027 0.00012 -0.00001 0.00002 0.00048 6.19097 0.01173 5.47928 6.81651 -7.86392 
